<svg width="173" height="70" viewBox="0 0 173 70" fill="none" xmlns="http://www.w3.org/2000/svg">
<circle cx="16.5" cy="7.5" r="7.5" fill="#FF6B00"/>
<circle cx="48.4141" cy="7.5" r="7.5" fill="#FF6B00"/>
<path d="M22.3057 66.3844L20.7495 62.4703C20.2779 62.6275 19.7749 62.7375 19.2404 62.8004C18.706 62.8947 18.0772 62.9419 17.3541 62.9419C15.3106 62.9419 13.4086 62.7375 11.648 62.3288C9.88744 61.9201 8.34695 61.2914 7.02653 60.4425C5.73754 59.5937 4.71579 58.5248 3.96126 57.2358C3.20674 55.9468 2.82947 54.422 2.82947 52.6615V31.2989C2.82947 29.5384 3.20674 28.0136 3.96126 26.7246C4.71579 25.4356 5.75326 24.3667 7.07368 23.5179C8.42554 22.6691 10.0132 22.0403 11.8366 21.6316C13.6601 21.2229 15.6564 21.0185 17.8257 21.0185C19.9949 21.0185 21.9913 21.2229 23.8147 21.6316C25.6382 22.0403 27.2101 22.6691 28.5305 23.5179C29.8824 24.3667 30.9356 25.4356 31.6901 26.7246C32.4446 28.0136 32.8219 29.5384 32.8219 31.2989V52.6615C32.8219 54.1391 32.5547 55.4595 32.0202 56.6227C31.4858 57.7545 30.7469 58.7291 29.8038 59.5465L33.152 66.3844H22.3057ZM13.2042 50.4451C13.2042 51.7026 13.6601 52.6458 14.5718 53.2745C15.4835 53.9033 16.5681 54.2177 17.8257 54.2177C19.0832 54.2177 20.1679 53.9033 21.0796 53.2745C21.9913 52.6458 22.4472 51.7026 22.4472 50.4451V33.5154C22.4472 32.2578 21.9913 31.3147 21.0796 30.6859C20.1679 30.0571 19.0832 29.7427 17.8257 29.7427C16.5681 29.7427 15.4835 30.0571 14.5718 30.6859C13.6601 31.3147 13.2042 32.2578 13.2042 33.5154V50.4451ZM36.5278 62.2345V28.0451L33.4154 21.7259H56.6171C59.8867 21.7259 62.3546 22.5747 64.0209 24.2724C65.6871 25.9387 66.5203 28.3909 66.5203 31.6291V39.6459C66.5203 40.8406 66.3474 41.9566 66.0015 42.9941C65.6871 44.0316 65.247 44.9433 64.6811 45.7293C64.1466 46.4838 63.5179 47.0968 62.7948 47.5684C62.1031 48.0086 61.3801 48.2286 60.6255 48.2286L67.2276 62.2345H56.6171L47.4213 41.1078H53.3161C55.5168 41.1078 56.6171 40.0074 56.6171 37.8067V33.704C56.6171 31.5033 55.5168 30.4029 53.3161 30.4029H46.431V62.2345H36.5278ZM93.1383 46.2008C91.4721 46.2008 89.9473 45.8865 88.564 45.2577C87.2121 44.5975 86.0489 43.7172 85.0743 42.6168C84.0997 41.5165 83.3452 40.2118 82.8107 38.7027C82.2763 37.1937 82.009 35.5746 82.009 33.8455C82.009 32.1164 82.2763 30.4973 82.8107 28.9882C83.3452 27.4792 84.0997 26.1745 85.0743 25.0741C86.0489 23.9738 87.2121 23.1092 88.564 22.4804C89.9473 21.8202 91.4721 21.4901 93.1383 21.4901H111.907C113.573 21.4901 115.082 21.8202 116.434 22.4804C117.818 23.1092 118.997 23.9738 119.971 25.0741C120.946 26.1745 121.7 27.4792 122.235 28.9882C122.769 30.4973 123.036 32.1164 123.036 33.8455C123.036 35.5746 122.769 37.1937 122.235 38.7027C121.7 40.2118 120.946 41.5165 119.971 42.6168C118.997 43.7172 117.818 44.5975 116.434 45.2577C115.082 45.8865 113.573 46.2008 111.907 46.2008H93.1383ZM108.842 37.7124C109.942 37.7124 110.885 37.3823 111.671 36.7221C112.489 36.0305 112.897 35.0716 112.897 33.8455C112.897 32.6194 112.489 31.6762 111.671 31.016C110.885 30.3244 109.942 29.9785 108.842 29.9785H96.2036C95.1032 29.9785 94.1443 30.3244 93.3269 31.016C92.541 31.6762 92.148 32.6194 92.148 33.8455C92.148 35.0716 92.541 36.0305 93.3269 36.7221C94.1443 37.3823 95.1032 37.7124 96.2036 37.7124H108.842ZM97.3354 47.6156H107.71V54.6893H124.215V63.4135H80.8301V54.6893H97.3354V47.6156ZM139.259 30.4501V54.6893H156.377V63.4135H133.977C133.285 63.4135 132.704 63.162 132.232 62.6589L129.591 59.8766C129.12 59.3736 128.884 58.792 128.884 58.1318V26.8661L126.479 21.7259H153.076L154.962 30.4501H139.259ZM170.147 21.0185V64.8282H159.772V46.248H147.559L146.144 37.5238H159.772V26.1587L157.367 21.0185H170.147Z" fill="black"/>
</svg>
