<svg width="176" height="176" viewBox="0 0 176 176" fill="none" xmlns="http://www.w3.org/2000/svg">
<path d="M0 5.5C0 4.04131 0.579463 2.64236 1.61091 1.61091C2.64236 0.579463 4.04131 0 5.5 0L38.5 0C39.9587 0 41.3576 0.579463 42.3891 1.61091C43.4205 2.64236 44 4.04131 44 5.5C44 6.95869 43.4205 8.35764 42.3891 9.38909C41.3576 10.4205 39.9587 11 38.5 11H11V38.5C11 39.9587 10.4205 41.3576 9.38909 42.3891C8.35764 43.4205 6.95869 44 5.5 44C4.04131 44 2.64236 43.4205 1.61091 42.3891C0.579463 41.3576 0 39.9587 0 38.5V5.5ZM132 5.5C132 4.04131 132.579 2.64236 133.611 1.61091C134.642 0.579463 136.041 0 137.5 0L170.5 0C171.959 0 173.358 0.579463 174.389 1.61091C175.421 2.64236 176 4.04131 176 5.5V38.5C176 39.9587 175.421 41.3576 174.389 42.3891C173.358 43.4205 171.959 44 170.5 44C169.041 44 167.642 43.4205 166.611 42.3891C165.579 41.3576 165 39.9587 165 38.5V11H137.5C136.041 11 134.642 10.4205 133.611 9.38909C132.579 8.35764 132 6.95869 132 5.5ZM5.5 132C6.95869 132 8.35764 132.579 9.38909 133.611C10.4205 134.642 11 136.041 11 137.5V165H38.5C39.9587 165 41.3576 165.579 42.3891 166.611C43.4205 167.642 44 169.041 44 170.5C44 171.959 43.4205 173.358 42.3891 174.389C41.3576 175.421 39.9587 176 38.5 176H5.5C4.04131 176 2.64236 175.421 1.61091 174.389C0.579463 173.358 0 171.959 0 170.5V137.5C0 136.041 0.579463 134.642 1.61091 133.611C2.64236 132.579 4.04131 132 5.5 132ZM170.5 132C171.959 132 173.358 132.579 174.389 133.611C175.421 134.642 176 136.041 176 137.5V170.5C176 171.959 175.421 173.358 174.389 174.389C173.358 175.421 171.959 176 170.5 176H137.5C136.041 176 134.642 175.421 133.611 174.389C132.579 173.358 132 171.959 132 170.5C132 169.041 132.579 167.642 133.611 166.611C134.642 165.579 136.041 165 137.5 165H165V137.5C165 136.041 165.579 134.642 166.611 133.611C167.642 132.579 169.041 132 170.5 132ZM44 44H55V55H44V44Z" fill="white"/>
<path d="M77 22H22V77H77V22ZM33 33H66V66H33V33ZM55 121H44V132H55V121Z" fill="white"/>
<path d="M77 99H22V154H77V99ZM33 110H66V143H33V110ZM121 44H132V55H121V44Z" fill="white"/>
<path d="M99 22H154V77H99V22ZM110 33V66H143V33H110ZM88 88V110H99V121H88V132H110V110H121V132H132V121H154V110H121V88H88ZM110 110H99V99H110V110ZM154 132H143V143H121V154H154V132ZM110 154V143H88V154H110Z" fill="white"/>
<path d="M132 99H154V88H132V99Z" fill="white"/>
</svg>
