<svg width="16" height="16" viewBox="0 0 16 16" fill="none" xmlns="http://www.w3.org/2000/svg">
<path d="M6.49999 4.48208C8.16399 2.80908 12.325 5.73608 6.49999 9.50008C0.674985 5.73608 4.83599 2.81008 6.49999 4.48208Z" fill="#FF6B00"/>
<path d="M13 6.50003C13.0022 7.88286 12.5613 9.23002 11.742 10.344C11.782 10.374 11.82 10.406 11.857 10.442L15.707 14.292C15.8946 14.4795 16.0001 14.7339 16.0002 14.9992C16.0003 15.2644 15.895 15.5189 15.7075 15.7065C15.52 15.8942 15.2656 15.9996 15.0004 15.9997C14.7351 15.9998 14.4806 15.8945 14.293 15.707L10.443 11.857C10.4068 11.8213 10.3734 11.7828 10.343 11.742H10.345C9.16682 12.6064 7.73174 13.0486 6.27138 12.9972C4.81102 12.9458 3.41058 12.4038 2.29608 11.4587C1.18158 10.5137 0.418042 9.2206 0.128703 7.78827C-0.160637 6.35593 0.0411 4.86788 0.701353 3.56429C1.36161 2.26069 2.44186 1.2176 3.76776 0.603362C5.09366 -0.0108759 6.58785 -0.160424 8.00918 0.178854C9.43052 0.518132 10.6961 1.32644 11.6016 2.47333C12.5071 3.62021 12.9997 5.03876 13 6.50003V6.50003ZM6.50001 12C7.22228 12 7.93748 11.8578 8.60477 11.5814C9.27206 11.305 9.87837 10.8998 10.3891 10.3891C10.8998 9.87839 11.3049 9.27207 11.5813 8.60478C11.8577 7.93749 12 7.2223 12 6.50003C12 5.77775 11.8577 5.06256 11.5813 4.39527C11.3049 3.72798 10.8998 3.12166 10.3891 2.61094C9.87837 2.10022 9.27206 1.69509 8.60477 1.41869C7.93748 1.14229 7.22228 1.00003 6.50001 1.00003C5.04132 1.00003 3.64237 1.57949 2.61092 2.61094C1.57947 3.64239 1.00001 5.04133 1.00001 6.50003C1.00001 7.95872 1.57947 9.35766 2.61092 10.3891C3.64237 11.4206 5.04132 12 6.50001 12V12Z" fill="black"/>
</svg>
