<svg width="76" height="76" viewBox="0 0 76 76" fill="none" xmlns="http://www.w3.org/2000/svg">
<path d="M38 73C57.33 73 73 57.33 73 38C73 18.67 57.33 3 38 3C18.67 3 3 18.67 3 38C3 57.33 18.67 73 38 73Z" stroke="#FF6B00" stroke-width="5" stroke-linecap="round" stroke-linejoin="round"/>
<path d="M48.8876 26.333C48.1831 25.1109 47.1596 24.1035 45.9265 23.4184C44.6935 22.7334 43.2973 22.3966 41.8876 22.4441H34.1098C32.047 22.4441 30.0687 23.2635 28.6101 24.7221C27.1515 26.1807 26.332 28.159 26.332 30.2218C26.332 32.2846 27.1515 34.2629 28.6101 35.7216C30.0687 37.1802 32.047 37.9996 34.1098 37.9996H41.8876C43.9504 37.9996 45.9287 38.8191 47.3873 40.2777C48.8459 41.7363 49.6654 43.7146 49.6654 45.7774C49.6654 47.8402 48.8459 49.8185 47.3873 51.2771C45.9287 52.7357 43.9504 53.5552 41.8876 53.5552H34.1098C32.7001 53.6026 31.3039 53.2658 30.0709 52.5808C28.8378 51.8958 27.8143 50.8883 27.1098 49.6663M37.9987 18.5552V57.4441" stroke="#FF6B00" stroke-width="5" stroke-linecap="round" stroke-linejoin="round"/>
</svg>
