<svg width="70" height="69" viewBox="0 0 70 69" fill="none" xmlns="http://www.w3.org/2000/svg">
<path d="M0 2.13281C0 1.56716 0.230468 1.02467 0.640704 0.624686C1.05094 0.224706 1.60734 0 2.1875 0L15.3125 0C15.8927 0 16.4491 0.224706 16.8593 0.624686C17.2695 1.02467 17.5 1.56716 17.5 2.13281C17.5 2.69847 17.2695 3.24096 16.8593 3.64094C16.4491 4.04092 15.8927 4.26562 15.3125 4.26562H4.375V14.9297C4.375 15.4953 4.14453 16.0378 3.7343 16.4378C3.32406 16.8378 2.76766 17.0625 2.1875 17.0625C1.60734 17.0625 1.05094 16.8378 0.640704 16.4378C0.230468 16.0378 0 15.4953 0 14.9297V2.13281ZM52.5 2.13281C52.5 1.56716 52.7305 1.02467 53.1407 0.624686C53.5509 0.224706 54.1073 0 54.6875 0L67.8125 0C68.3927 0 68.9491 0.224706 69.3593 0.624686C69.7695 1.02467 70 1.56716 70 2.13281V14.9297C70 15.4953 69.7695 16.0378 69.3593 16.4378C68.9491 16.8378 68.3927 17.0625 67.8125 17.0625C67.2323 17.0625 66.6759 16.8378 66.2657 16.4378C65.8555 16.0378 65.625 15.4953 65.625 14.9297V4.26562H54.6875C54.1073 4.26562 53.5509 4.04092 53.1407 3.64094C52.7305 3.24096 52.5 2.69847 52.5 2.13281V2.13281ZM2.1875 51.1875C2.76766 51.1875 3.32406 51.4122 3.7343 51.8122C4.14453 52.2122 4.375 52.7547 4.375 53.3203V63.9844H15.3125C15.8927 63.9844 16.4491 64.2091 16.8593 64.6091C17.2695 65.009 17.5 65.5515 17.5 66.1172C17.5 66.6828 17.2695 67.2253 16.8593 67.6253C16.4491 68.0253 15.8927 68.25 15.3125 68.25H2.1875C1.60734 68.25 1.05094 68.0253 0.640704 67.6253C0.230468 67.2253 0 66.6828 0 66.1172V53.3203C0 52.7547 0.230468 52.2122 0.640704 51.8122C1.05094 51.4122 1.60734 51.1875 2.1875 51.1875V51.1875ZM67.8125 51.1875C68.3927 51.1875 68.9491 51.4122 69.3593 51.8122C69.7695 52.2122 70 52.7547 70 53.3203V66.1172C70 66.6828 69.7695 67.2253 69.3593 67.6253C68.9491 68.0253 68.3927 68.25 67.8125 68.25H54.6875C54.1073 68.25 53.5509 68.0253 53.1407 67.6253C52.7305 67.2253 52.5 66.6828 52.5 66.1172C52.5 65.5515 52.7305 65.009 53.1407 64.6091C53.5509 64.2091 54.1073 63.9844 54.6875 63.9844H65.625V53.3203C65.625 52.7547 65.8555 52.2122 66.2657 51.8122C66.6759 51.4122 67.2323 51.1875 67.8125 51.1875ZM17.5 17.0625H21.875V21.3281H17.5V17.0625Z" fill="#FF6B00"/>
<path d="M30.625 8.53125H8.75V29.8594H30.625V8.53125ZM13.125 12.7969H26.25V25.5938H13.125V12.7969ZM21.875 46.9219H17.5V51.1875H21.875V46.9219Z" fill="#FF6B00"/>
<path d="M30.625 38.3906H8.75V59.7188H30.625V38.3906ZM13.125 42.6562H26.25V55.4531H13.125V42.6562ZM48.125 17.0625H52.5V21.3281H48.125V17.0625Z" fill="#FF6B00"/>
<path d="M39.375 8.53125H61.25V29.8594H39.375V8.53125ZM43.75 12.7969V25.5938H56.875V12.7969H43.75ZM35 34.125V42.6562H39.375V46.9219H35V51.1875H43.75V42.6562H48.125V51.1875H52.5V46.9219H61.25V42.6562H48.125V34.125H35ZM43.75 42.6562H39.375V38.3906H43.75V42.6562ZM61.25 51.1875H56.875V55.4531H48.125V59.7188H61.25V51.1875ZM43.75 59.7188V55.4531H35V59.7188H43.75Z" fill="#FF6B00"/>
<path d="M52.5 38.3906H61.25V34.125H52.5V38.3906Z" fill="#FF6B00"/>
</svg>
